# xmcd
#
# Track frame offsets:
#	150
#	36767
#	51352
#	70322
#	83664
#	120147
#	143639
#	161418
#	172691
#
# Disc length: 2471 seconds
# Revision: 0
# Processed by: cddbd v1.5.2PL0 Copyright (c) Steve Scherf et al.
# Submitted via: dBpowerAMP V12.0
#
DISCID=6509a509
DTITLE=Taj Mahal - Brothers
DYEAR=1977
DGENRE=Blues
TTITLE0=Love Theme in the Key of D
TTITLE1=Funky Butt
TTITLE2=Brother's Doin' Time
TTITLE3=Night Rider
TTITLE4=Free the Brothers
TTITLE5=Sentidos Dulce (Sweet Feelings)
TTITLE6=The Funeral March
TTITLE7=Malcolm's Song
TTITLE8=David and Angela
EXTD=
EXTT0=
EXTT1=
EXTT2=
EXTT3=
EXTT4=
EXTT5=
EXTT6=
EXTT7=
EXTT8=
PLAYORDER=
